<?xml version="1.0" encoding="utf-8"?>
<!-- Generator: Adobe Illustrator 17.0.0, SVG Export Plug-In . SVG Version: 6.00 Build 0)  -->
<!DOCTYPE svg PUBLIC "-//W3C//DTD SVG 1.1//EN" "http://www.w3.org/Graphics/SVG/1.1/DTD/svg11.dtd">
<svg version="1.1" id="Layer_1" xmlns="http://www.w3.org/2000/svg" xmlns:xlink="http://www.w3.org/1999/xlink" x="0px" y="0px"
	 width="120px" height="40px" viewBox="0 0 120 40" enable-background="new 0 0 120 40" xml:space="preserve">
<g>
	<g>
		<g>
			<g>
				<g>
					<path fill="#FFFFFF" d="M11.523,32.433h-1.278l-0.509-1.175H7.411l-0.48,1.175H5.685l2.266-5.168h1.242L11.523,32.433z
						 M9.36,30.388l-0.801-1.918l-0.785,1.918H9.36z"/>
				</g>
			</g>
			<g>
				<g>
					<g>
						<g>
							<g>
								<path fill="#FFFFFF" d="M12.15,32.433v-5.168h2.471c0.623,0,1.075,0.047,1.355,0.14c0.282,0.092,0.509,0.258,0.677,0.497
									c0.169,0.235,0.255,0.506,0.255,0.811c0,0.39-0.128,0.709-0.385,0.961c-0.257,0.253-0.641,0.412-1.151,0.479
									c0.255,0.131,0.464,0.274,0.63,0.433c0.165,0.158,0.387,0.437,0.668,0.838l0.71,1.009h-1.405l-0.848-1.125
									c-0.302-0.401-0.509-0.656-0.618-0.759c-0.113-0.106-0.23-0.175-0.354-0.216c-0.124-0.039-0.321-0.057-0.592-0.057h-0.238
									v2.157H12.15C12.15,32.434,12.15,32.433,12.15,32.433z M13.324,29.449h0.87c0.563,0,0.915-0.02,1.054-0.061
									c0.141-0.042,0.25-0.117,0.33-0.22c0.079-0.103,0.119-0.232,0.119-0.388c0-0.174-0.053-0.315-0.157-0.422
									c-0.105-0.106-0.251-0.174-0.443-0.202c-0.096-0.014-0.381-0.02-0.858-0.02h-0.916v1.312H13.324z"/>
								<path fill="#FFFFFF" d="M21.736,30.532l1.138,0.321c-0.174,0.563-0.465,0.982-0.871,1.256
									c-0.406,0.274-0.921,0.411-1.545,0.411c-0.773,0-1.408-0.234-1.905-0.704c-0.497-0.468-0.745-1.109-0.745-1.922
									c0-0.861,0.25-1.53,0.749-2.004c0.499-0.478,1.156-0.714,1.973-0.714c0.712,0,1.288,0.187,1.734,0.56
									c0.264,0.221,0.463,0.537,0.595,0.951l-1.162,0.249c-0.07-0.268-0.213-0.48-0.431-0.636
									c-0.219-0.154-0.484-0.231-0.796-0.231c-0.431,0-0.78,0.138-1.05,0.413c-0.267,0.274-0.403,0.718-0.403,1.334
									c0,0.654,0.133,1.118,0.398,1.396c0.265,0.277,0.609,0.415,1.031,0.415c0.312,0,0.581-0.086,0.806-0.263
									C21.475,31.188,21.638,30.91,21.736,30.532"/>
								<polygon fill="#FFFFFF" points="23.887,32.433 23.887,27.264 25.061,27.264 25.061,29.3 27.363,29.3 27.363,27.264 
									28.537,27.264 28.537,32.433 27.363,32.433 27.363,30.172 25.061,30.172 25.061,32.433 								"/>
								<rect x="29.716" y="27.264" fill="#FFFFFF" width="1.174" height="5.168"/>
								<polygon fill="#FFFFFF" points="33.319,32.433 33.319,28.137 31.593,28.137 31.593,27.264 36.217,27.264 36.217,28.137 
									34.495,28.137 34.495,32.433 								"/>
								<polygon fill="#FFFFFF" points="36.974,32.433 36.974,27.264 41.286,27.264 41.286,28.137 38.148,28.137 38.148,29.283 
									41.069,29.283 41.069,30.155 38.148,30.155 38.148,31.563 41.398,31.563 41.398,32.433 								"/>
								<path fill="#FFFFFF" d="M46.117,30.532l1.138,0.321c-0.174,0.563-0.465,0.982-0.87,1.256
									c-0.407,0.274-0.922,0.411-1.547,0.411c-0.772,0-1.407-0.234-1.904-0.704c-0.498-0.468-0.747-1.109-0.747-1.922
									c0-0.861,0.25-1.53,0.75-2.004c0.5-0.478,1.159-0.714,1.972-0.714c0.713,0,1.291,0.187,1.736,0.56
									c0.264,0.221,0.462,0.537,0.594,0.951l-1.162,0.249c-0.068-0.268-0.213-0.48-0.43-0.636
									c-0.219-0.154-0.484-0.231-0.797-0.231c-0.431,0-0.78,0.138-1.048,0.413c-0.269,0.274-0.403,0.718-0.403,1.334
									c0,0.654,0.132,1.118,0.396,1.396c0.264,0.277,0.609,0.415,1.032,0.415c0.312,0,0.581-0.086,0.805-0.263
									C45.857,31.188,46.018,30.91,46.117,30.532"/>
								<polygon fill="#FFFFFF" points="49.571,32.433 49.571,28.137 47.845,28.137 47.845,27.264 52.469,27.264 52.469,28.137 
									50.746,28.137 50.746,32.433 								"/>
								<path fill="#FFFFFF" d="M53.218,27.264h1.175v2.798c0,0.445,0.015,0.733,0.042,0.864c0.051,0.212,0.171,0.381,0.361,0.51
									c0.188,0.128,0.446,0.191,0.774,0.191c0.334,0,0.586-0.058,0.755-0.179c0.171-0.122,0.272-0.271,0.305-0.447
									c0.035-0.175,0.052-0.469,0.052-0.877v-2.86h1.175v2.714c0,0.621-0.032,1.06-0.096,1.315
									c-0.063,0.256-0.181,0.474-0.351,0.649c-0.172,0.175-0.399,0.317-0.685,0.42c-0.285,0.106-0.659,0.158-1.118,0.158
									c-0.556,0-0.979-0.057-1.265-0.172c-0.287-0.114-0.514-0.26-0.681-0.443c-0.166-0.182-0.276-0.374-0.329-0.574
									c-0.076-0.295-0.115-0.733-0.115-1.311v-2.756H53.218z"/>
								<path fill="#FFFFFF" d="M59.101,32.433v-5.168h2.47c0.622,0,1.074,0.047,1.355,0.14c0.283,0.092,0.509,0.258,0.678,0.497
									c0.169,0.235,0.251,0.506,0.251,0.811c0,0.39-0.127,0.709-0.385,0.961c-0.256,0.253-0.639,0.412-1.15,0.479
									c0.255,0.131,0.464,0.274,0.629,0.433c0.166,0.158,0.388,0.437,0.668,0.838l0.711,1.009h-1.405l-0.85-1.125
									c-0.302-0.401-0.508-0.656-0.618-0.759c-0.113-0.106-0.229-0.175-0.354-0.216c-0.126-0.039-0.321-0.057-0.591-0.057h-0.239
									v2.157H59.1v-0.001H59.101z M60.273,29.449h0.868c0.566,0,0.916-0.02,1.055-0.061c0.141-0.042,0.252-0.117,0.331-0.22
									c0.078-0.103,0.118-0.232,0.118-0.388c0-0.174-0.051-0.315-0.157-0.422c-0.104-0.106-0.252-0.174-0.442-0.202
									c-0.096-0.014-0.382-0.02-0.859-0.02h-0.915V29.449L60.273,29.449z"/>
								<path fill="#FFFFFF" d="M70.21,32.433h-1.278l-0.51-1.175h-2.326l-0.478,1.175h-1.245l2.264-5.168h1.242L70.21,32.433z
									 M68.046,30.388l-0.801-1.918l-0.785,1.918H68.046z"/>
								<polygon fill="#FFFFFF" points="70.864,32.433 70.864,27.307 72.039,27.307 72.039,31.563 74.96,31.563 74.96,32.433 
																	"/>
								<path fill="#FFFFFF" d="M77.828,30.77l0.726-0.055c0.036,0.258,0.116,0.47,0.24,0.636c0.127,0.166,0.321,0.299,0.586,0.402
									c0.264,0.101,0.563,0.152,0.894,0.152c0.292,0,0.552-0.039,0.775-0.116c0.226-0.076,0.393-0.182,0.504-0.319
									c0.109-0.137,0.164-0.282,0.164-0.443c0-0.161-0.052-0.304-0.159-0.424c-0.105-0.122-0.279-0.224-0.523-0.305
									c-0.158-0.055-0.501-0.139-1.035-0.252c-0.535-0.116-0.909-0.222-1.125-0.323c-0.278-0.131-0.484-0.289-0.622-0.482
									c-0.134-0.19-0.203-0.406-0.203-0.645c0-0.259,0.084-0.504,0.25-0.731c0.166-0.225,0.409-0.398,0.728-0.514
									c0.32-0.118,0.678-0.177,1.07-0.177c0.43,0,0.812,0.061,1.141,0.185c0.329,0.123,0.581,0.305,0.758,0.546
									c0.178,0.238,0.274,0.509,0.287,0.813l-0.738,0.05c-0.039-0.329-0.174-0.574-0.402-0.741
									c-0.229-0.169-0.568-0.251-1.014-0.251c-0.465,0-0.805,0.076-1.018,0.228c-0.213,0.151-0.318,0.334-0.318,0.547
									c0,0.187,0.073,0.339,0.225,0.459c0.147,0.119,0.535,0.24,1.16,0.367c0.625,0.126,1.055,0.237,1.287,0.331
									c0.339,0.137,0.59,0.314,0.752,0.525c0.162,0.213,0.24,0.458,0.24,0.736c0,0.274-0.088,0.534-0.264,0.777
									c-0.178,0.243-0.432,0.432-0.765,0.566c-0.332,0.134-0.706,0.202-1.122,0.202c-0.528,0-0.967-0.068-1.324-0.205
									c-0.355-0.136-0.635-0.341-0.836-0.615C77.945,31.426,77.84,31.118,77.828,30.77"/>
								<path fill="#FFFFFF" d="M85.147,32.433v-2.189l-2.241-2.978h0.937l1.147,1.558c0.213,0.292,0.409,0.583,0.591,0.874
									c0.174-0.27,0.386-0.575,0.634-0.912l1.128-1.52h0.896l-2.321,2.978v2.189C85.919,32.433,85.147,32.433,85.147,32.433z"/>
								<path fill="#FFFFFF" d="M88.669,30.77l0.726-0.055c0.034,0.258,0.115,0.47,0.24,0.636c0.125,0.166,0.319,0.299,0.584,0.402
									c0.267,0.101,0.563,0.152,0.895,0.152c0.292,0,0.551-0.039,0.777-0.116c0.226-0.076,0.391-0.182,0.502-0.319
									c0.108-0.137,0.164-0.282,0.164-0.443c0-0.161-0.052-0.304-0.159-0.424c-0.106-0.122-0.279-0.224-0.523-0.305
									c-0.156-0.055-0.501-0.139-1.035-0.252c-0.536-0.116-0.909-0.222-1.123-0.323c-0.28-0.131-0.484-0.289-0.622-0.482
									c-0.137-0.189-0.203-0.405-0.203-0.645c0-0.259,0.083-0.504,0.25-0.731c0.165-0.225,0.408-0.398,0.728-0.514
									c0.321-0.118,0.677-0.177,1.068-0.177c0.432,0,0.812,0.061,1.141,0.185c0.329,0.123,0.582,0.305,0.759,0.546
									c0.177,0.238,0.274,0.509,0.286,0.813l-0.738,0.05c-0.04-0.329-0.175-0.574-0.404-0.741
									c-0.227-0.169-0.568-0.251-1.014-0.251c-0.464,0-0.804,0.076-1.016,0.228c-0.213,0.151-0.32,0.334-0.32,0.547
									c0,0.187,0.073,0.339,0.226,0.459c0.147,0.119,0.536,0.24,1.161,0.367c0.625,0.126,1.055,0.237,1.287,0.331
									c0.339,0.137,0.589,0.314,0.751,0.525c0.16,0.213,0.242,0.458,0.242,0.736c0,0.274-0.09,0.534-0.266,0.777
									c-0.177,0.243-0.433,0.432-0.764,0.566c-0.331,0.134-0.707,0.202-1.12,0.202c-0.528,0-0.969-0.068-1.324-0.205
									c-0.355-0.136-0.635-0.341-0.838-0.615C88.787,31.426,88.679,31.118,88.669,30.77"/>
								<polygon fill="#FFFFFF" points="95.831,32.433 95.831,27.875 93.915,27.875 93.915,27.264 98.526,27.264 98.526,27.875 
									96.601,27.875 96.601,32.433 								"/>
								<polygon fill="#FFFFFF" points="99.331,32.433 99.331,27.264 103.538,27.264 103.538,27.875 100.102,27.875 100.102,29.456 
									103.319,29.456 103.319,30.063 100.102,30.063 100.102,31.822 103.67,31.822 103.67,32.433 								"/>
								<path fill="#FFFFFF" d="M104.713,32.433v-5.168h1.157l1.378,3.659c0.126,0.34,0.218,0.595,0.276,0.765
									c0.066-0.188,0.171-0.464,0.31-0.829l1.392-3.594h1.036v5.168h-0.741v-4.326l-1.692,4.326h-0.693l-1.682-4.398v4.398
									L104.713,32.433L104.713,32.433L104.713,32.433z"/>
								<path fill="#FFFFFF" d="M111.242,30.77l0.727-0.055c0.034,0.258,0.114,0.47,0.24,0.636c0.125,0.166,0.32,0.299,0.586,0.402
									c0.264,0.101,0.561,0.152,0.893,0.152c0.292,0,0.552-0.039,0.778-0.116c0.224-0.076,0.393-0.182,0.501-0.319
									c0.111-0.137,0.166-0.282,0.166-0.443c0-0.161-0.055-0.304-0.161-0.424c-0.104-0.122-0.279-0.224-0.523-0.305
									c-0.156-0.055-0.501-0.139-1.037-0.252c-0.532-0.116-0.907-0.222-1.122-0.323c-0.277-0.131-0.484-0.289-0.62-0.482
									c-0.138-0.19-0.205-0.406-0.205-0.645c0-0.259,0.081-0.504,0.25-0.731c0.166-0.225,0.408-0.398,0.728-0.514
									c0.321-0.118,0.677-0.177,1.068-0.177c0.429,0,0.81,0.061,1.141,0.185c0.33,0.123,0.581,0.305,0.761,0.546
									c0.175,0.238,0.271,0.509,0.284,0.813l-0.737,0.05c-0.041-0.329-0.175-0.574-0.404-0.741
									c-0.228-0.169-0.566-0.251-1.013-0.251c-0.465,0-0.805,0.076-1.019,0.228c-0.213,0.151-0.32,0.334-0.32,0.547
									c0,0.187,0.077,0.339,0.228,0.459c0.147,0.119,0.535,0.24,1.159,0.367c0.627,0.126,1.057,0.237,1.291,0.331
									c0.338,0.137,0.587,0.314,0.749,0.525c0.16,0.213,0.241,0.458,0.241,0.736c0,0.274-0.09,0.534-0.266,0.777
									c-0.177,0.243-0.432,0.432-0.764,0.566c-0.331,0.134-0.704,0.202-1.12,0.202c-0.526,0-0.969-0.068-1.324-0.205
									c-0.356-0.136-0.635-0.341-0.838-0.615C111.359,31.426,111.254,31.118,111.242,30.77"/>
								<line fill="#FFFFFF" stroke="#FFFFFF" stroke-miterlimit="10" x1="6.068" y1="23.431" x2="115.873" y2="23.431"/>
								<line fill="#FFFFFF" stroke="#FFFFFF" stroke-miterlimit="10" x1="6.068" y1="23.431" x2="115.873" y2="23.431"/>
								<path fill="#FFFFFF" d="M8.25,5.13c0.102,0.014,0.193,0.04,0.274,0.076c0.08,0.037,0.158,0.09,0.233,0.158
									c0.075,0.068,0.159,0.159,0.254,0.272l7.02,8.878c-0.027-0.286-0.047-0.561-0.061-0.828c-0.014-0.266-0.02-0.518-0.02-0.754
									v-7.82h3.023v14.781h-1.786c-0.263,0-0.487-0.041-0.67-0.122c-0.182-0.081-0.358-0.231-0.528-0.447l-6.969-8.807
									c0.02,0.259,0.036,0.509,0.051,0.758c0.014,0.245,0.02,0.479,0.02,0.693v7.925H6.068V5.111h1.806
									C8.023,5.111,8.148,5.117,8.25,5.13"/>
								<path fill="#FFFFFF" d="M35.995,12.496c0,1.068-0.183,2.062-0.554,2.983c-0.368,0.92-0.888,1.72-1.557,2.398
									c-0.671,0.682-1.476,1.215-2.419,1.597c-0.943,0.386-1.99,0.578-3.139,0.578c-1.15,0-2.198-0.192-3.145-0.578
									c-0.946-0.383-1.757-0.915-2.431-1.597c-0.673-0.678-1.192-1.478-1.561-2.398c-0.37-0.92-0.553-1.915-0.553-2.983
									s0.183-2.061,0.553-2.983c0.368-0.92,0.889-1.718,1.561-2.393c0.674-0.676,1.485-1.206,2.431-1.592
									c0.947-0.386,1.995-0.578,3.145-0.578c1.149,0,2.196,0.195,3.139,0.582c0.944,0.388,1.75,0.921,2.419,1.599
									c0.668,0.676,1.188,1.474,1.557,2.392C35.812,10.444,35.995,11.434,35.995,12.496 M32.485,12.496
									c0-0.731-0.095-1.388-0.284-1.974c-0.188-0.585-0.46-1.081-0.816-1.486c-0.355-0.406-0.79-0.716-1.303-0.933
									c-0.515-0.215-1.1-0.324-1.755-0.324c-0.664,0-1.253,0.109-1.77,0.324c-0.518,0.218-0.955,0.528-1.309,0.933
									c-0.355,0.406-0.627,0.902-0.816,1.486c-0.189,0.586-0.284,1.243-0.284,1.974c0,0.737,0.095,1.398,0.284,1.983
									c0.19,0.585,0.462,1.08,0.816,1.486c0.355,0.406,0.792,0.714,1.309,0.928c0.517,0.212,1.106,0.318,1.77,0.318
									c0.655,0,1.241-0.107,1.755-0.318c0.513-0.214,0.948-0.523,1.303-0.928c0.355-0.407,0.628-0.902,0.816-1.486
									C32.391,13.894,32.485,13.233,32.485,12.496"/>
								<path fill="#FFFFFF" d="M41.068,14.424v5.467h-3.429V5.111h4.809c1.069,0,1.98,0.109,2.734,0.329
									c0.753,0.22,1.368,0.525,1.848,0.918c0.475,0.393,0.823,0.858,1.038,1.39c0.216,0.535,0.325,1.116,0.325,1.746
									c0,0.48-0.063,0.932-0.193,1.359c-0.128,0.427-0.319,0.821-0.574,1.182c-0.253,0.36-0.564,0.685-0.933,0.967
									c-0.368,0.286-0.793,0.518-1.272,0.702c0.228,0.115,0.443,0.256,0.642,0.425c0.202,0.169,0.375,0.375,0.523,0.62
									l3.145,5.144h-3.103c-0.577,0-0.988-0.216-1.238-0.649l-2.456-4.292c-0.109-0.189-0.236-0.324-0.38-0.406
									c-0.146-0.081-0.351-0.12-0.614-0.12C41.942,14.424,41.068,14.424,41.068,14.424z M41.068,12.059h1.379
									c0.468,0,0.864-0.06,1.191-0.177c0.329-0.117,0.597-0.283,0.809-0.494c0.209-0.209,0.361-0.454,0.456-0.733
									c0.095-0.283,0.141-0.585,0.141-0.909c0-0.649-0.21-1.158-0.635-1.522c-0.422-0.364-1.075-0.547-1.962-0.547h-1.379
									L41.068,12.059L41.068,12.059z"/>
								<polygon fill="#FFFFFF" points="61.256,5.111 61.256,7.827 57.096,7.827 57.096,19.891 53.667,19.891 53.667,7.827 
									49.507,7.827 49.507,5.111 								"/>
								<polygon fill="#FFFFFF" points="75.58,19.891 72.132,19.891 72.132,13.641 66.125,13.641 66.125,19.891 62.676,19.891 
									62.676,5.111 66.125,5.111 66.125,11.288 72.132,11.288 72.132,5.111 75.58,5.111 								"/>
								<polygon fill="#FFFFFF" points="87.53,5.111 87.53,7.747 81.464,7.747 81.464,11.198 86.11,11.198 86.11,13.732 
									81.464,13.732 81.464,17.253 87.53,17.253 87.53,19.891 78.015,19.891 78.015,5.111 								"/>
								<path fill="#FFFFFF" d="M92.905,14.424v5.467h-3.428V5.111h4.808c1.069,0,1.98,0.109,2.735,0.329
									c0.753,0.22,1.37,0.525,1.847,0.918c0.478,0.393,0.823,0.858,1.039,1.39c0.218,0.535,0.324,1.116,0.324,1.746
									c0,0.48-0.063,0.932-0.191,1.359c-0.129,0.427-0.319,0.821-0.573,1.182c-0.255,0.36-0.565,0.685-0.935,0.967
									c-0.368,0.286-0.792,0.518-1.274,0.702c0.232,0.115,0.444,0.256,0.646,0.425c0.2,0.169,0.374,0.375,0.521,0.62l3.145,5.144
									h-3.103c-0.574,0-0.988-0.216-1.238-0.649L94.77,14.95c-0.107-0.189-0.233-0.324-0.38-0.406
									c-0.145-0.081-0.351-0.12-0.614-0.12C93.779,14.424,92.905,14.424,92.905,14.424z M92.905,12.059h1.379
									c0.468,0,0.864-0.06,1.191-0.177c0.33-0.117,0.599-0.283,0.807-0.494c0.212-0.209,0.363-0.454,0.458-0.733
									c0.096-0.283,0.142-0.585,0.142-0.909c0-0.649-0.212-1.158-0.634-1.522c-0.422-0.364-1.077-0.547-1.964-0.547h-1.379
									L92.905,12.059L92.905,12.059z"/>
								<path fill="#FFFFFF" d="M105.15,5.13c0.102,0.014,0.193,0.04,0.276,0.076c0.081,0.037,0.159,0.09,0.232,0.158
									c0.075,0.068,0.159,0.159,0.253,0.272l7.021,8.878c-0.027-0.286-0.047-0.561-0.06-0.828
									c-0.015-0.266-0.021-0.518-0.021-0.754v-7.82h3.024v14.781h-1.786c-0.264,0-0.487-0.041-0.671-0.122
									c-0.182-0.081-0.359-0.231-0.528-0.447l-6.97-8.807c0.021,0.259,0.037,0.509,0.051,0.758
									c0.013,0.245,0.021,0.479,0.021,0.693v7.925h-3.024V5.111h1.806C104.924,5.111,105.049,5.117,105.15,5.13"/>
							</g>
						</g>
					</g>
				</g>
			</g>
		</g>
	</g>
</g>
</svg>
